<?xml version="1.0" encoding="UTF-8"?>
<svg width="25px" height="25px" viewBox="0 0 25 25" version="1.1" xmlns="http://www.w3.org/2000/svg" xmlns:xlink="http://www.w3.org/1999/xlink">
    <title>Fill 1</title>
    <g id="Homepage-R3--✔" stroke="none" stroke-width="1" fill="" fill-rule="evenodd">
        <path d="M25,12.5763918 C25,5.63063727 19.4035645,0 12.5,0 C5.59643555,0 0,5.63063727 0,12.5763918 C0,18.8536324 4.57106934,24.056525 10.546875,25 L10.546875,16.211755 L7.37304688,16.211755 L7.37304688,12.5763918 L10.546875,12.5763918 L10.546875,9.80565545 C10.546875,6.65369726 12.4130371,4.91265303 15.2683105,4.91265303 C16.6359131,4.91265303 18.0664062,5.15828568 18.0664062,5.15828568 L18.0664062,8.25325709 L16.4901855,8.25325709 C14.9373779,8.25325709 14.453125,9.22269547 14.453125,10.2172621 L14.453125,12.5763918 L17.9199219,12.5763918 L17.3657227,16.211755 L14.453125,16.211755 L14.453125,25 C20.4289307,24.056525 25,18.8536324 25,12.5763918" id="Fill-1" fill=""></path>
    </g>
</svg>
