<svg viewBox="0 0 26 25" xmlns="http://www.w3.org/2000/svg">
    <path d="M13.837.009c2.344.003 2.817.021 3.978.074 1.33.06 2.238.272 3.033.58.822.32 1.519.748 2.213 1.442a6.126 6.126 0 011.442 2.214c.309.794.52 1.703.58 3.033.061 1.333.076 1.758.076 5.152v.32c-.001 3.102-.017 3.542-.075 4.832-.061 1.33-.272 2.238-.581 3.033a6.126 6.126 0 01-1.442 2.214 6.126 6.126 0 01-2.213 1.441c-.795.309-1.703.52-3.033.58-1.333.062-1.759.076-5.152.076h-.32c-3.102-.001-3.543-.016-4.832-.075-1.33-.06-2.239-.272-3.034-.581a6.126 6.126 0 01-2.213-1.441 6.125 6.125 0 01-1.441-2.214c-.31-.795-.52-1.703-.581-3.033-.053-1.16-.07-1.633-.075-3.978V11.33C.171 8.985.19 8.513.242 7.352c.06-1.33.272-2.239.58-3.033a6.125 6.125 0 011.442-2.214A6.125 6.125 0 014.477.664c.795-.309 1.704-.52 3.034-.58C8.67.03 9.144.011 11.489.008zm-.258 2.25h-1.833c-2.508.003-2.947.02-4.133.073-1.218.056-1.88.26-2.32.43a3.88 3.88 0 00-1.437.935 3.871 3.871 0 00-.935 1.437c-.17.44-.374 1.102-.43 2.32-.054 1.186-.07 1.625-.072 4.133v1.834c.002 2.508.018 2.947.072 4.132.056 1.219.26 1.88.43 2.32.227.584.498 1 .935 1.438.437.437.854.708 1.437.934.44.171 1.102.375 2.32.43 1.186.055 1.625.07 4.133.073h1.833c2.509-.003 2.947-.018 4.133-.072 1.219-.056 1.88-.26 2.32-.43.584-.227 1-.498 1.437-.935.438-.438.708-.854.935-1.437.171-.44.375-1.102.43-2.32.054-1.186.07-1.625.073-4.133v-1.834c-.003-2.508-.019-2.947-.073-4.133-.055-1.218-.259-1.88-.43-2.32-.227-.583-.497-1-.935-1.437a3.871 3.871 0 00-1.436-.934c-.44-.172-1.102-.375-2.32-.43-1.187-.055-1.625-.07-4.134-.073zm-.916 3.828a6.417 6.417 0 110 12.834 6.417 6.417 0 010-12.834zm0 2.252a4.165 4.165 0 100 8.33 4.165 4.165 0 000-8.33zm6.67-4.005a1.5 1.5 0 110 3 1.5 1.5 0 010-3z" fill="currentColor" fill-rule="evenodd"/>
</svg>
