<?xml version="1.0" encoding="UTF-8"?>
<svg width="15px" height="15px" viewBox="0 0 15 15" version="1.1" xmlns="http://www.w3.org/2000/svg" xmlns:xlink="http://www.w3.org/1999/xlink">
    <title>t</title>
    <g id="Homepage-R3--✔" stroke="none" stroke-width="1" fill="" fill-rule="evenodd">
        <path d="M6.8371582,14.7216797 L14.9084473,6.65039062 C14.9597168,6.59912109 14.9963379,6.51123047 14.9963379,6.43798828 L14.9963379,0.9375 C14.9963379,0.417480469 14.5788574,0 14.0588379,0 L8.55834961,0 C8.48510742,0 8.3972168,0.0366210938 8.34594727,0.087890625 L0.274658203,8.15917969 C-0.0915527344,8.52539062 -0.0915527344,9.13330078 0.274658203,9.49951172 L5.49682617,14.7216797 C5.86303711,15.0878906 6.47094727,15.0878906 6.8371582,14.7216797 Z M11.7150879,4.6875 C10.9313965,4.6875 10.3088379,4.06494141 10.3088379,3.28125 C10.3088379,2.49755859 10.9313965,1.875 11.7150879,1.875 C12.4987793,1.875 13.1213379,2.49755859 13.1213379,3.28125 C13.1213379,4.06494141 12.4987793,4.6875 11.7150879,4.6875 Z" id="t" fill="" fill-rule="nonzero"></path>
    </g>
</svg>
