<?xml version="1.0" encoding="UTF-8"?>
<svg width="26px" height="25px" viewBox="0 0 26 25" version="1.1" xmlns="http://www.w3.org/2000/svg" xmlns:xlink="http://www.w3.org/1999/xlink">
    <title>Combined Shape</title>
    <g id="News-Listing-+-Detail--✔" stroke="none" stroke-width="1" fill="" fill-rule="evenodd">
        <g id="News-Detail----Simple" transform="translate(-1160.000000, -587.000000)" fill="">
            <g id="News-Metadata" transform="translate(0.000000, 560.000000)">
                <g id="Group-9" transform="translate(1160.166667, 27.000000)">
                    <path d="M23.0787692,-3.36238973e-15 C24.0955962,-3.36238973e-15 24.9237692,0.806944444 24.9237692,1.80138889 L24.9237692,1.80138889 L24.9237692,23.1963542 C24.9237692,24.1918403 24.0955962,25 23.0787692,25 L23.0787692,25 L1.83963462,25 C0.824711538,25 -6.56934824e-13,24.1918403 -6.56934824e-13,23.1963542 L-6.56934824e-13,23.1963542 L-6.56934824e-13,1.80138889 C-6.56934824e-13,0.806944444 0.824711538,-3.36238973e-15 1.83963462,-3.36238973e-15 L1.83963462,-3.36238973e-15 Z M7.39194231,9.37239583 L3.69519231,9.37239583 L3.69519231,21.3032986 L7.39194231,21.3032986 L7.39194231,9.37239583 Z M16.8033462,9.07586806 C15.0050769,9.07586806 13.7990769,10.0647569 13.3056346,11.0027778 L13.3056346,11.0027778 L13.2561346,11.0027778 L13.2561346,9.37239583 L9.71065385,9.37239583 L9.71065385,21.3032986 L13.4041154,21.3032986 L13.4041154,15.4010417 C13.4041154,13.8451389 13.6995577,12.3380208 15.6227885,12.3380208 C17.5183269,12.3380208 17.5437692,14.1177083 17.5437692,15.5012153 L17.5437692,21.3032986 L21.2379231,21.3032986 L21.2379231,14.7588542 C21.2379231,11.5470486 20.5468269,9.07586806 16.8033462,9.07586806 Z M5.54434615,3.44201389 C4.35946154,3.44201389 3.40061538,4.40538194 3.40061538,5.59114583 C3.40061538,6.778125 4.35946154,7.74149306 5.54434615,7.74149306 C6.72611538,7.74149306 7.68669231,6.778125 7.68669231,5.59114583 C7.68669231,4.40538194 6.72611538,3.44201389 5.54434615,3.44201389 Z" id="Combined-Shape"></path>
                </g>
            </g>
        </g>
    </g>
</svg>
