<svg viewBox="0 0 16 16" xmlns="http://www.w3.org/2000/svg">
    <path d="M2.04 15.984C9.296 15.07 15.07 9.313 15.983 2.04 16 1.984 16 1.945 16 1.906a.236.236 0 00-.04-.125c-.015-.078-.093-.148-.163-.187L11.836.016a.361.361 0 00-.43.171L9.22 4.556c-.07.133-.031.28.062.39l2.125 2.125a13.44 13.44 0 01-4.336 4.36L4.945 9.28c-.11-.094-.258-.133-.39-.062L.188 11.406a.361.361 0 00-.172.43l1.578 3.96c.039.071.093.15.187.188.021.01.052.014.082.015l.043.001c.04 0 .078 0 .133-.016z" fill="currentColor"/>
</svg>
