<?xml version="1.0" encoding="UTF-8"?>
<svg width="14px" height="14px" viewBox="0 0 14 14" version="1.1" xmlns="http://www.w3.org/2000/svg" xmlns:xlink="http://www.w3.org/1999/xlink">
    <title>S</title>
    <g id="Homepage-R3--✔" stroke="none" stroke-width="1" fill="" fill-rule="evenodd">
        <path d="M1.16894531,14 C1.45605469,14 1.76367188,13.8837891 1.99609375,13.6582031 L5.94726562,9.68652344 C6.75390625,10.2060547 7.7109375,10.5 8.75,10.5 C11.6484375,10.5 14,8.1484375 14,5.25 C14,2.3515625 11.6484375,0 8.75,0 C5.8515625,0 3.5,2.3515625 3.5,5.25 C3.5,6.2890625 3.79394531,7.24609375 4.31347656,8.05273438 L0.341796875,12.0039062 C-0.116210938,12.4619141 -0.116210938,13.2070312 0.341796875,13.6582031 C0.567382812,13.8837891 0.861328125,14 1.16894531,14 Z M8.75,8.75 C6.82226562,8.75 5.25,7.17773438 5.25,5.25 C5.25,3.32226562 6.82226562,1.75 8.75,1.75 C10.6777344,1.75 12.25,3.32226562 12.25,5.25 C12.25,7.17773438 10.6777344,8.75 8.75,8.75 Z" id="S" fill="" fill-rule="nonzero"></path>
    </g>
</svg>
