<?xml version="1.0" encoding="UTF-8"?>
<svg width="25px" height="21px" viewBox="0 0 25 21" version="1.1" xmlns="http://www.w3.org/2000/svg" xmlns:xlink="http://www.w3.org/1999/xlink">
    <title>Twitter Icon</title>
    <g id="News-Listing-+-Detail--✔" stroke="none" stroke-width="1" fill="" fill-rule="evenodd">
        <g id="News-Detail----Simple" transform="translate(-1068.000000, -589.000000)" fill="">
            <g id="News-Metadata" transform="translate(0.000000, 560.000000)">
                <g id="Social-/-Twitter" transform="translate(1068.000000, 29.500000)">
                    <path d="M7.85314126,20.25 C17.2869148,20.25 22.4489796,12.456939 22.4489796,5.71026083 C22.4489796,5.4910187 22.4489796,5.27177657 22.4389756,5.05253445 C23.4393758,4.33501476 24.3097239,3.42814961 25,2.40169783 C24.0796319,2.81028543 23.0892357,3.07935531 22.0488195,3.20890748 C23.1092437,2.58107776 23.9195678,1.57455709 24.3097239,0.378690945 C23.3193277,0.966658465 22.2188876,1.38521161 21.0484194,1.61441929 C20.1080432,0.617864173 18.777511,0 17.3069228,0 C14.4757903,0 12.1748699,2.29207677 12.1748699,5.11232776 C12.1748699,5.5109498 12.22489,5.8996063 12.304922,6.27829724 C8.04321729,6.06902067 4.26170468,4.02608268 1.73069228,0.936761811 C1.29051621,1.6941437 1.04041617,2.5711122 1.04041617,3.50787402 C1.04041617,5.28174213 1.95078031,6.84633366 3.32132853,7.76316437 C2.4809924,7.73326772 1.69067627,7.50406004 1.00040016,7.12536909 C1.00040016,7.1453002 1.00040016,7.1652313 1.00040016,7.19512795 C1.00040016,9.66658465 2.77110844,11.7394193 5.11204482,12.2078002 C4.68187275,12.3273868 4.23169268,12.3871801 3.7615046,12.3871801 C3.43137255,12.3871801 3.1112445,12.3572835 2.80112045,12.2974902 C3.45138055,14.3304626 5.35214086,15.8053642 7.59303721,15.8452264 C5.83233293,17.2204724 3.62144858,18.0376476 1.2204882,18.0376476 C0.81032413,18.0376476 0.400160064,18.0177165 0,17.9678888 C2.26090436,19.4029281 4.96198479,20.25 7.85314126,20.25" id="Twitter-Icon"></path>
                </g>
            </g>
        </g>
    </g>
</svg>
