<?xml version="1.0" standalone="no"?>
<!DOCTYPE svg PUBLIC "-//W3C//DTD SVG 20010904//EN"
 "http://www.w3.org/TR/2001/REC-SVG-20010904/DTD/svg10.dtd">
<svg version="1.0" xmlns="http://www.w3.org/2000/svg"
 width="700.000000pt" height="700.000000pt" viewBox="0 0 700.000000 700.000000"
 preserveAspectRatio="xMidYMid meet">
<metadata>
Created by potrace 1.11, written by Peter Selinger 2001-2013
</metadata>
<g transform="translate(0.000000,700.000000) scale(0.100000,-0.100000)"
fill="#000000" stroke="none">
<path d="M4235 6943 c-16 -65 -86 -195 -131 -243 -91 -97 -168 -125 -463 -165
-194 -27 -318 -56 -416 -100 -159 -70 -361 -247 -508 -444 -42 -57 -77 -100
-77 -96 0 20 95 204 143 277 142 219 295 342 507 409 l85 26 -60 19 c-40 12
-92 18 -155 18 -178 0 -271 -54 -499 -293 -135 -142 -160 -164 -228 -198 -145
-72 -211 -154 -333 -408 l-72 -150 -29 60 c-16 33 -29 70 -29 83 0 12 -4 22
-9 22 -21 0 -106 -89 -156 -165 -95 -143 -137 -265 -171 -504 -4 -22 -22 -51
-52 -83 -57 -61 -225 -200 -355 -293 -69 -49 -98 -76 -101 -94 -3 -14 -12 -86
-21 -159 l-17 -134 -323 -486 c-357 -540 -367 -552 -558 -681 -59 -40 -117
-87 -129 -104 -23 -33 -23 -46 13 -239 l13 -67 -38 -75 -38 -75 48 -68 c111
-155 149 -177 304 -178 52 0 112 4 132 8 l37 8 11 -43 c22 -87 55 -170 70
-178 8 -4 50 -15 92 -24 106 -22 271 -20 380 4 82 18 213 63 232 80 5 5 0 43
-10 87 -13 53 -19 118 -19 204 0 124 0 127 35 195 26 51 50 81 95 117 71 57
210 126 315 157 318 91 576 182 706 248 l61 31 51 -107 c61 -129 123 -311 152
-447 30 -143 38 -402 16 -551 -38 -256 -143 -504 -295 -692 -28 -34 -51 -65
-51 -69 0 -10 115 -177 198 -287 356 -472 748 -831 1077 -987 176 -83 156 -82
282 -9 172 100 376 235 538 356 780 584 1273 1312 1603 2370 53 170 130 448
160 579 l18 80 45 -3 c25 -2 65 -15 95 -31 l50 -29 -7 57 c-25 213 -227 332
-539 317 -69 -3 -138 -8 -155 -11 -47 -9 -8 12 78 42 131 47 328 43 449 -9
l48 -20 52 39 c124 92 277 166 472 229 l119 38 -49 45 c-82 74 -190 111 -326
111 l-71 0 19 21 c10 12 41 32 67 46 51 25 227 73 272 73 72 0 -21 47 -113 56
-69 8 -188 -13 -344 -61 -250 -75 -270 -78 -448 -79 -178 -1 -272 13 -415 59
-83 27 -238 95 -231 102 2 2 39 -5 82 -16 134 -33 256 -51 397 -60 289 -17
523 30 732 150 174 99 315 288 315 424 l-1 50 -31 -65 c-86 -178 -273 -269
-527 -257 -174 8 -310 53 -391 129 l-35 33 95 5 c74 4 107 11 152 32 112 52
203 182 215 305 l5 58 -30 -46 c-22 -35 -45 -54 -89 -75 -51 -26 -68 -29 -148
-28 -82 1 -106 6 -275 62 -342 112 -458 135 -675 135 -213 0 -344 -32 -515
-125 l-75 -41 30 35 c47 55 140 125 210 158 144 69 344 93 585 71 258 -24 353
-25 408 -6 140 51 228 173 220 307 l-3 51 -45 -38 c-100 -84 -224 -146 -340
-171 -86 -18 -276 -18 -349 -1 l-55 13 85 17 c167 33 290 98 361 192 21 28 38
53 38 57 0 4 -19 -1 -42 -11 -69 -29 -138 -42 -213 -42 -145 1 -228 56 -393
262 -113 141 -257 213 -427 212 -183 0 -361 -86 -549 -264 -96 -90 -99 -81
-15 43 180 265 486 426 819 429 l85 0 -43 20 c-76 33 -157 49 -254 49 -111 0
-181 -18 -377 -95 -76 -30 -160 -57 -187 -60 -50 -7 -134 8 -134 24 0 5 24 23
53 39 28 17 79 52 112 79 144 117 191 240 151 392 -18 65 -22 70 -31 34z
m-829 -1075 c-44 -63 -131 -208 -201 -338 -94 -175 -146 -251 -218 -316 -80
-74 -238 -151 -345 -169 -40 -6 -45 -11 -73 -68 -17 -34 -46 -87 -65 -118 -32
-53 -37 -57 -82 -64 -122 -18 -310 -97 -457 -193 -164 -106 -328 -201 -374
-217 -52 -17 -70 -37 -90 -98 -16 -48 -1 -91 39 -112 27 -14 29 -13 66 27 35
40 41 42 89 42 29 -1 60 -6 71 -12 15 -8 25 -4 55 22 26 24 58 39 120 55 112
29 163 48 193 72 26 21 34 53 16 64 -19 12 1 26 109 79 103 50 112 53 299 81
105 15 195 25 198 22 4 -4 -12 -61 -36 -129 -147 -420 -368 -806 -551 -960
-46 -39 -47 -39 -93 -27 -77 19 -247 7 -341 -25 -145 -50 -278 -162 -335 -283
-25 -53 -25 -56 -1 -43 11 5 46 10 78 10 l58 0 -51 -28 c-107 -59 -184 -141
-257 -273 -72 -131 -137 -354 -137 -473 l0 -54 -49 -21 c-76 -32 -180 -47
-230 -33 -22 7 -47 19 -56 28 -22 22 -19 118 4 170 28 62 40 63 39 3 -2 -66
17 -83 82 -74 61 9 79 21 85 53 20 104 42 171 90 269 32 67 50 115 44 119 -39
23 -132 -41 -249 -172 -58 -65 -99 -88 -205 -115 -91 -24 -271 -44 -318 -35
-27 5 -48 21 -85 63 l-50 56 24 51 c18 40 29 52 50 54 22 3 25 7 19 25 -59
182 -58 184 137 329 181 136 147 91 448 573 117 187 262 415 321 506 l109 166
0 95 0 96 58 43 c179 134 421 365 609 580 79 91 90 100 166 132 102 44 223 75
322 84 l77 6 -17 -39 c-24 -56 -46 -117 -43 -120 2 -1 57 47 123 108 311 284
579 472 755 529 72 23 75 23 56 -3z m-1478 -397 c9 -27 6 -35 -40 -95 -28 -37
-53 -65 -55 -62 -16 16 54 186 76 186 5 0 14 -13 19 -29z m1493 -157 c91 -67
191 -204 225 -308 9 -28 20 -55 24 -59 17 -19 75 117 82 190 l3 32 45 -57 c63
-79 160 -154 265 -206 177 -88 319 -118 558 -119 147 -1 166 -3 150 -15 -29
-22 -94 -50 -158 -66 -32 -9 -59 -17 -61 -18 -1 -2 70 -57 158 -123 253 -190
381 -336 493 -560 130 -262 164 -525 106 -821 -11 -55 -26 -120 -34 -146 -14
-44 -14 -48 2 -48 20 0 54 22 99 64 l33 31 -7 -30 c-24 -104 -192 -422 -291
-552 -28 -38 -25 -39 48 -14 76 26 142 61 239 125 46 31 84 56 86 56 15 0
-143 -247 -239 -375 -59 -78 -357 -385 -374 -385 -4 0 -41 55 -82 123 -337
556 -700 1014 -1235 1554 l-299 303 22 54 c33 81 59 189 73 303 14 116 9 113
100 67 262 -132 613 -484 819 -821 24 -39 47 -69 51 -67 15 10 -6 102 -49 219
-99 264 -273 562 -456 780 -189 225 -473 464 -665 560 l-54 27 55 49 c66 59
138 153 178 231 16 32 32 58 35 58 4 0 28 -16 55 -36z m56 -2211 c205 -265
492 -777 671 -1199 86 -201 100 -297 62 -424 -26 -87 -81 -171 -160 -244 -76
-70 -72 -74 -90 104 -17 176 -64 459 -106 634 -69 293 -150 529 -316 911 -55
127 -107 245 -114 263 -8 17 -13 32 -10 32 2 0 30 -35 63 -77z"/>
<path d="M894 3152 c-30 -3 -31 -4 -42 -85 -6 -45 -14 -93 -18 -107 -5 -20 0
-16 23 16 56 75 150 134 215 134 28 0 21 17 -9 25 -43 11 -135 20 -169 17z"/>
<path d="M695 3101 c-49 -22 -90 -79 -116 -161 -23 -75 -24 -90 -4 -90 22 0 5
-30 -59 -104 -43 -50 -47 -58 -26 -51 134 40 339 263 322 350 -5 26 -48 75
-66 75 -6 0 -29 -9 -51 -19z"/>
</g>
</svg>
