<svg xmlns="http://www.w3.org/2000/svg" xmlns:xlink="http://www.w3.org/1999/xlink" width="50" height="50" viewBox="0 0 26 26" version="1.1">
    <!-- Generator: Sketch 54 (76480) - https://sketchapp.com -->
    <title>Hop 404 Reporter 50x50 icon</title>
    <g>
        <path d="M8.83333333,3 L17.1666667,3 C20.3883277,3 23,5.61167229 23,8.83333333 L23,17.1666667 C23,20.3883277 20.3883277,23 17.1666667,23 L8.83333333,23 C5.61167229,23 3,20.3883277 3,17.1666667 L3,8.83333333 C3,5.61167229 5.61167229,3 8.83333333,3 Z" id="Rectangle" stroke="#F3760D" stroke-width="3" transform="translate(13.000000, 13.000000) rotate(-225.000000) translate(-13.000000, -13.000000) " fill="none"/>
        <circle id="Oval" stroke="#F3760D" stroke-width="2.69230769" transform="translate(13.000000, 13.000000) rotate(-315.000000) translate(-13.000000, -13.000000) " cx="13" cy="13" r="5.65384615" fill="none"/>
        <path d="M8.48713726,12.4871373 L8.48713726,13.1795294 L17.5128627,13.1795294 L17.5128627,12.4871373 L8.48713726,12.4871373 Z" id="Rectangle" stroke="#F3760D" stroke-width="0.974274527" fill="none" transform="translate(13.000000, 12.833333) rotate(-225.000000) translate(-13.000000, -12.833333) "/>
    </g>
</svg>