<?xml version="1.0" encoding="UTF-8"?>
<svg width="30px" height="30px" viewBox="0 0 30 30" version="1.1" xmlns="http://www.w3.org/2000/svg" xmlns:xlink="http://www.w3.org/1999/xlink">
    <title>a</title>
    <g id="Homepage-R3--✔" stroke="none" stroke-width="1" fill="" fill-rule="evenodd">
        <path d="M26.8798828,30 C27.9492188,30 28.9599609,29.4433594 29.5458984,28.5058594 C30.1025391,27.5976562 30.1318359,26.4550781 29.6484375,25.4882812 L17.7832031,1.74316406 C17.2558594,0.659179688 16.1865234,0 15,0 C13.8134766,0 12.7441406,0.659179688 12.1875,1.74316406 L0.307617188,25.4882812 C-0.131835937,26.4550781 -0.102539062,27.5976562 0.454101563,28.5058594 C1.04003906,29.4433594 2.05078125,30 3.12011719,30 L26.8798828,30 Z M16.875,18.75 L13.125,18.75 L13.125,8.12988281 L16.875,8.12988281 L16.875,18.75 Z M15,26.8798828 C13.6083984,26.8798828 12.4951172,25.7666016 12.4951172,24.375 C12.4951172,22.9833984 13.6083984,21.8701172 15,21.8701172 C16.3916016,21.8701172 17.5048828,22.9833984 17.5048828,24.375 C17.5048828,25.7666016 16.3916016,26.8798828 15,26.8798828 Z" id="a" fill="" fill-rule="nonzero"></path>
    </g>
</svg>
