<?xml version="1.0" encoding="UTF-8"?>
<svg width="14px" height="14px" viewBox="0 0 14 14" version="1.1" xmlns="http://www.w3.org/2000/svg" xmlns:xlink="http://www.w3.org/1999/xlink">
    <title>r</title>
    <g id="Homepage-R3--✔" stroke="none" stroke-width="1" fill="" fill-rule="evenodd">
        <path d="M7,13.4189453 C8.65429688,13.4189453 10.1787109,12.7832031 11.3134766,11.7509766 C11.3271484,11.7509766 11.3271484,11.7304688 11.3271484,11.7304688 C11.375,11.6826172 11.4091797,11.6210938 11.4091797,11.5390625 C11.4091797,11.4570312 11.3886719,11.3886719 11.3271484,11.3408203 L11.3271484,11.3271484 L11.3271484,11.3271484 L10.0761719,10.0761719 C9.98046875,9.98046875 9.80273438,9.96679688 9.68652344,10.0761719 C8.96191406,10.6914062 8.01855469,11.0810547 7,11.0810547 C4.75097656,11.0810547 2.91894531,9.24902344 2.91894531,7 C2.91894531,4.75097656 4.75097656,2.91894531 7,2.91894531 C8.01855469,2.91894531 8.96191406,3.28808594 9.67285156,3.92382812 L7.95703125,5.62597656 C7.875,5.70117188 7.86132812,5.83105469 7.88867188,5.94726562 C7.93652344,6.06347656 8.05273438,6.125 8.16894531,6.125 L13.7060547,6.125 C13.8701172,6.125 14,5.99511719 14,5.83105469 L14,0.293945312 C14,0.177734375 13.9384766,0.0615234375 13.8222656,0.013671875 C13.7060547,-0.013671875 13.5761719,0 13.5009766,0.08203125 L11.3271484,2.26953125 C10.1787109,1.21679688 8.66796875,0.581054688 7,0.581054688 C3.46582031,0.581054688 0.581054688,3.46582031 0.581054688,7 C0.581054688,10.5341797 3.46582031,13.4189453 7,13.4189453 Z" id="r" fill="" fill-rule="nonzero"></path>
    </g>
</svg>
