<svg viewBox="0 0 26 19" xmlns="http://www.w3.org/2000/svg" xmlns:xlink="http://www.w3.org/1999/xlink">
    <defs>
        <path id="a" d="M.008.006h24.717V17.36H.008z"/>
    </defs>
    <g transform="translate(.167 .75)" fill="none" fill-rule="evenodd">
        <mask id="b" fill="#fff">
            <use xlink:href="#a"/>
        </mask>
        <path d="M9.834 12.344V5.016l6.462 3.664-6.462 3.664zM24.209 2.71A3.101 3.101 0 0022.023.518C20.094 0 12.363 0 12.363 0S4.63 0 2.703.518A3.101 3.101 0 00.517 2.711C0 4.645 0 8.68 0 8.68s0 4.035.517 5.97a3.102 3.102 0 002.186 2.192c1.928.518 9.66.518 9.66.518s7.731 0 9.66-.518a3.102 3.102 0 002.186-2.193c.516-1.934.516-5.969.516-5.969s0-4.035-.516-5.97z" fill="currentColor" mask="url(#b)"/>
    </g>
</svg>
