<?xml version="1.0" standalone="no"?>
<!DOCTYPE svg PUBLIC "-//W3C//DTD SVG 20010904//EN"
 "http://www.w3.org/TR/2001/REC-SVG-20010904/DTD/svg10.dtd">
<svg version="1.0" xmlns="http://www.w3.org/2000/svg"
 width="80.000000pt" height="80.000000pt" viewBox="0 0 80.000000 80.000000"
 preserveAspectRatio="xMidYMid meet">
<metadata>
Created by potrace 1.11, written by Peter Selinger 2001-2013
</metadata>
<g transform="translate(0.000000,80.000000) scale(0.100000,-0.100000)"
fill="#000000" stroke="none">
<path d="M368 707 c-289 -499 -358 -621 -354 -624 2 -3 145 -5 317 -5 l313 0
24 -24 c39 -38 92 -29 115 18 31 64 -27 125 -92 98 -16 -6 -32 -18 -35 -26 -4
-12 -53 -14 -281 -14 -151 0 -275 2 -275 4 0 6 291 509 300 519 6 7 73 -97 89
-138 2 -5 12 -21 21 -35 10 -14 26 -41 37 -60 94 -168 87 -159 116 -137 16 11
5 34 -119 247 -74 129 -137 236 -138 237 -1 1 -18 -26 -38 -60z m366 -573 c23
-9 20 -51 -4 -59 -11 -3 -24 -3 -30 0 -14 9 -12 52 3 58 6 3 13 6 14 6 1 1 8
-2 17 -5z"/>
<path d="M245 314 c-44 -47 -13 -137 46 -135 13 0 42 1 64 1 l40 0 -1 68 c-1
37 -2 73 -3 80 -1 16 -31 16 -31 0 0 -9 -3 -9 -12 0 -22 22 -77 14 -103 -14z
m105 -33 c12 -24 -10 -65 -37 -69 -23 -3 -53 21 -53 44 0 44 69 63 90 25z"/>
<path d="M426 328 c4 -7 15 -25 25 -39 18 -26 18 -27 -11 -67 -16 -22 -26 -42
-23 -45 9 -10 37 5 59 30 l20 24 14 -26 c8 -16 22 -25 37 -25 29 0 29 4 -3 46
l-27 34 27 40 26 40 -22 0 c-13 0 -29 -9 -36 -21 l-13 -21 -23 21 c-24 23 -62
29 -50 9z"/>
</g>
</svg>
