<svg viewBox="0 0 18 18" xmlns="http://www.w3.org/2000/svg"><path d="M13.033 0H4.967A4.973 4.973 0 000 4.967v8.066A4.973 4.973 0 004.967 18h8.066A4.973 4.973 0 0018 13.033V4.967A4.973 4.973 0 0013.033 0zm3.37 13.033a3.374 3.374 0 01-3.37 3.37H4.967a3.374 3.374 0 01-3.37-3.37V4.967a3.374 3.374 0 013.37-3.37h8.066a3.374 3.374 0 013.37 3.37v8.066z"/><path d="M9 4C6.243 4 4 6.243 4 9s2.243 5 5 5 5-2.243 5-5-2.243-5-5-5zm0 8.278A3.282 3.282 0 015.722 9 3.282 3.282 0 019 5.722 3.282 3.282 0 0112.278 9 3.282 3.282 0 019 12.278zM14 3a1.004 1.004 0 00-1 1c0 .263.107.52.294.707.185.186.443.293.706.293.264 0 .52-.107.707-.293a1.004 1.004 0 000-1.415A1.004 1.004 0 0014 3z"/></svg>