<svg viewBox="0 0 14 14" xmlns="http://www.w3.org/2000/svg"><path d="M13.658 7.439L7.051.84C6.817.607 6.503.408 6.108.245 5.714.082 5.354 0 5.028 0H1.182C.863 0 .585.117.35.351A1.137 1.137 0 000 1.183v3.844c0 .327.082.687.245 1.081.163.395.362.706.596.934l6.607 6.616c.228.228.505.342.832.342.32 0 .6-.114.84-.342l4.538-4.546c.228-.229.342-.506.342-.832 0-.32-.114-.6-.342-.841zM3.793 3.793a1.14 1.14 0 01-.836.347 1.14 1.14 0 01-.836-.347 1.14 1.14 0 01-.347-.836c0-.326.116-.605.347-.836a1.14 1.14 0 01.836-.347c.327 0 .605.116.836.347.231.23.347.51.347.836 0 .327-.116.605-.347.836z"/></svg>