<svg viewBox="0 0 18 18" xmlns="http://www.w3.org/2000/svg"><path d="M15.015 9.16a3.1 3.1 0 00-.634-1.104 2.482 2.482 0 00-.95-.647 3.33 3.33 0 00-1.199-.209 2.95 2.95 0 00-.902.124c-.256.082-.476.19-.662.323a2.558 2.558 0 00-.47.428 6.385 6.385 0 00-.326.419V7.39h-2.61c.013.216.02.634.02 1.256v2.36l-.02 4.204h2.61v-4.376c0-.114.006-.225.019-.333a1.05 1.05 0 01.077-.295 2.09 2.09 0 01.47-.647c.21-.203.502-.304.873-.304.473 0 .812.162 1.017.485.205.323.307.751.307 1.284v4.186h2.61v-4.49c0-.596-.077-1.116-.23-1.56zm-9.74-3.258a1.23 1.23 0 00.384-.951c0-.38-.13-.7-.393-.961-.262-.26-.617-.39-1.065-.39-.448 0-.806.13-1.075.39-.268.26-.403.58-.403.96 0 .369.128.686.384.952.256.266.608.4 1.055.4h.02c.46 0 .825-.134 1.093-.4zM5.333 7.2h-2.61v7.82h2.61V7.2zM17.866.124c.09.082.134.187.134.314V17.56a.409.409 0 01-.134.314.464.464 0 01-.327.124H.461a.464.464 0 01-.327-.124A.408.408 0 010 17.56V.438C0 .31.045.206.134.124A.464.464 0 01.461 0h17.078c.128 0 .237.041.327.124z"/></svg>