<svg xmlns="http://www.w3.org/2000/svg" xmlns:xlink="http://www.w3.org/1999/xlink"><symbol id="angle_down" viewBox="0 0 5 4"><path d="M5 4H4V1H0V0h5v4z"/></symbol><symbol id="angle_right" viewBox="0 0 7 7"><path d="M0 7l7-2.781V2.78L0 0v1.313l3.797 1.438c.842.324 2.196.741 2.196.741v.031s-1.354.433-2.196.757L0 5.702V7z"/></symbol><symbol id="arrow_left" viewBox="0 0 22 22"><path d="M11.972 19.65l-7.278-7.277h15.931a1.375 1.375 0 000-2.75H4.694l7.278-7.277A1.374 1.374 0 1010.028.403L.402 10.027a1.384 1.384 0 00-.298 1.5 1.37 1.37 0 00.3.446l9.625 9.624a1.374 1.374 0 101.944-1.944l-.001-.003z"/></symbol><symbol id="arrow_right" viewBox="0 0 22 22"><path d="M10.028 2.348l7.278 7.278H1.375a1.375 1.375 0 000 2.75h15.931l-7.278 7.277a1.374 1.374 0 101.945 1.944l9.625-9.625a1.373 1.373 0 000-1.944L11.973.403a1.374 1.374 0 10-1.945 1.944v.001z"/></symbol><symbol id="caret_down" viewBox="0 0 12 8"><path d="M12 0L6 8 0 0z"/></symbol><symbol id="caret_left" viewBox="0 0 8 16"><path d="M8 16L0 8l8-8z"/></symbol><symbol id="caret_right" viewBox="0 0 8 16"><path d="M0 16l8-8-8-8z"/></symbol><symbol id="clock" viewBox="0 0 16 16"><path d="M8 0c4.411 0 8 3.589 8 8s-3.589 8-8 8-8-3.589-8-8 3.589-8 8-8zm0 14.298A6.305 6.305 0 0014.298 8 6.305 6.305 0 008 1.702 6.305 6.305 0 001.702 8 6.305 6.305 0 008 14.298zm4.17-6.545a.659.659 0 010 1.317H7.914a.659.659 0 01-.658-.658V3.43a.659.659 0 011.317 0v4.323h3.595z"/></symbol><symbol id="close" viewBox="0 0 20 20"><path d="M10 7.455L17.455 0 20 2.545 12.545 10 20 17.455 17.455 20 10 12.545 2.545 20 0 17.455 7.455 10 0 2.545 2.545 0z"/></symbol><symbol id="expand" viewBox="0 0 9 18"><path d="M4.5 2.83L7.608 6 8.99 4.59 4.5 0 0 4.59 1.392 6 4.5 2.83zm0 12.34L1.392 12 .01 13.41 4.5 18 9 13.41 7.608 12 4.5 15.17z"/></symbol><symbol id="external" viewBox="0 0 18 18"><path d="M16 16H2V2h7V0H2a2 2 0 00-2 2v14a2 2 0 002 2h14c1.1 0 2-.9 2-2V9h-2v7zM11 0v2h3.59l-9.83 9.83 1.41 1.41L16 3.41V7h2V0h-7z"/></symbol><symbol id="facebook" viewBox="0 0 32 32"><path d="M31.998 16.098C31.998 7.208 24.835 0 15.999 0S0 7.207 0 16.098C0 24.133 5.851 30.793 13.499 32V20.75H9.437v-4.653h4.062V12.55c0-4.035 2.389-6.263 6.043-6.263 1.75 0 3.581.314 3.581.314v3.961h-2.017c-1.987 0-2.607 1.24-2.607 2.513v3.02h4.437l-.709 4.654h-3.728v11.249c7.649-1.207 13.499-7.867 13.499-15.902v.002z"/></symbol><symbol id="fax" viewBox="0 0 18 16"><path d="M17.265 2.712h-2.204V.735a.733.733 0 00-.735-.732H3.673a.733.733 0 00-.734.732v1.977H.735A.733.733 0 000 3.444v7.177c0 .404.329.732.735.732h2.204v3.859c0 .244.05.426.239.599.088.08.182.132.297.164.106.03.212.028.32.028H14.205c.107 0 .213.002.32-.028a.708.708 0 00.297-.165c.189-.172.238-.355.238-.599v-1.266-2.592h2.204A.733.733 0 0018 10.62V3.444a.733.733 0 00-.735-.732zM1.837 5.293a.642.642 0 11-.002-1.283.642.642 0 01.002 1.283zm12.49 9.977H3.673V9.486h10.654v5.784zm0-12.558H3.673V1.467c0-.404.33-.732.735-.732h9.184c.406 0 .735.328.735.732v1.245z"/></symbol><symbol id="file" viewBox="0 0 16 20"><path d="M2 0C.9 0 .01.9.01 2L0 18c0 1.1.89 2 1.99 2H14c1.1 0 2-.9 2-2V6l-6-6H2zm7 7V1.5L14.5 7H9z"/></symbol><symbol id="flickr" viewBox="0 0 22 10"><path d="M22 5.001C22 7.761 19.793 10 17.07 10s-4.93-2.238-4.93-4.999C12.14 2.239 14.346 0 17.07 0S22 2.239 22 5.001zM4.93 0C2.207 0 0 2.239 0 5.001 0 7.761 2.207 10 4.93 10s4.93-2.238 4.93-4.999C9.86 2.239 7.653 0 4.93 0z"/></symbol><symbol id="home" viewBox="0 0 10 10"><path d="M9.99 5.087a.22.22 0 01-.2.127H8.75v4.58c0 .117-.093.21-.21.21H6.46a.208.208 0 01-.21-.21v-3.54h-2.5v3.54c0 .117-.093.21-.21.21H1.46a.208.208 0 01-.21-.21v-4.58H.21a.22.22 0 01-.2-.127.255.255 0 01.048-.235l4.79-4.79a.215.215 0 01.303 0l4.79 4.79a.255.255 0 01.049.235z"/></symbol><symbol id="instagram" viewBox="0 0 18 18"><path d="M13.033 0H4.967A4.973 4.973 0 000 4.967v8.066A4.973 4.973 0 004.967 18h8.066A4.973 4.973 0 0018 13.033V4.967A4.973 4.973 0 0013.033 0zm3.37 13.033a3.374 3.374 0 01-3.37 3.37H4.967a3.374 3.374 0 01-3.37-3.37V4.967a3.374 3.374 0 013.37-3.37h8.066a3.374 3.374 0 013.37 3.37v8.066z"/><path d="M9 4C6.243 4 4 6.243 4 9s2.243 5 5 5 5-2.243 5-5-2.243-5-5-5zm0 8.278A3.282 3.282 0 015.722 9 3.282 3.282 0 019 5.722 3.282 3.282 0 0112.278 9 3.282 3.282 0 019 12.278zM14 3a1.004 1.004 0 00-1 1c0 .263.107.52.294.707.185.186.443.293.706.293.264 0 .52-.107.707-.293a1.004 1.004 0 000-1.415A1.004 1.004 0 0014 3z"/></symbol><symbol id="label" viewBox="0 0 14 14"><path d="M13.658 7.439L7.051.84C6.817.607 6.503.408 6.108.245 5.714.082 5.354 0 5.028 0H1.182C.863 0 .585.117.35.351A1.137 1.137 0 000 1.183v3.844c0 .327.082.687.245 1.081.163.395.362.706.596.934l6.607 6.616c.228.228.505.342.832.342.32 0 .6-.114.84-.342l4.538-4.546c.228-.229.342-.506.342-.832 0-.32-.114-.6-.342-.841zM3.793 3.793a1.14 1.14 0 01-.836.347 1.14 1.14 0 01-.836-.347 1.14 1.14 0 01-.347-.836c0-.326.116-.605.347-.836a1.14 1.14 0 01.836-.347c.327 0 .605.116.836.347.231.23.347.51.347.836 0 .327-.116.605-.347.836z"/></symbol><symbol id="linkedin" viewBox="0 0 18 18"><path d="M15.015 9.16a3.1 3.1 0 00-.634-1.104 2.482 2.482 0 00-.95-.647 3.33 3.33 0 00-1.199-.209 2.95 2.95 0 00-.902.124c-.256.082-.476.19-.662.323a2.558 2.558 0 00-.47.428 6.385 6.385 0 00-.326.419V7.39h-2.61c.013.216.02.634.02 1.256v2.36l-.02 4.204h2.61v-4.376c0-.114.006-.225.019-.333a1.05 1.05 0 01.077-.295 2.09 2.09 0 01.47-.647c.21-.203.502-.304.873-.304.473 0 .812.162 1.017.485.205.323.307.751.307 1.284v4.186h2.61v-4.49c0-.596-.077-1.116-.23-1.56zm-9.74-3.258a1.23 1.23 0 00.384-.951c0-.38-.13-.7-.393-.961-.262-.26-.617-.39-1.065-.39-.448 0-.806.13-1.075.39-.268.26-.403.58-.403.96 0 .369.128.686.384.952.256.266.608.4 1.055.4h.02c.46 0 .825-.134 1.093-.4zM5.333 7.2h-2.61v7.82h2.61V7.2zM17.866.124c.09.082.134.187.134.314V17.56a.409.409 0 01-.134.314.464.464 0 01-.327.124H.461a.464.464 0 01-.327-.124A.408.408 0 010 17.56V.438C0 .31.045.206.134.124A.464.464 0 01.461 0h17.078c.128 0 .237.041.327.124z"/></symbol><symbol id="logo" viewBox="0 0 250 90"><path d="M0 0h250v90H0z"/></symbol><symbol id="mail" viewBox="0 0 22 16"><path d="M20.066 0H1.934C.869 0 0 .829 0 1.846v12.308C0 15.168.865 16 1.934 16h18.132C21.13 16 22 15.174 22 14.154V1.846C22 .832 21.135 0 20.066 0zM19.8 1.23l-8.758 8.363-8.834-8.362h17.592zM1.29 13.9V2.095l6.208 5.877-6.208 5.927zm.912.87l6.212-5.93 2.176 2.06a.666.666 0 00.91-.002L13.62 8.87l6.178 5.9H2.201zm18.51-.87L14.533 8l6.178-5.899v11.798z"/></symbol><symbol id="menu" viewBox="0 0 22 12"><path d="M0 0h22v2H0V0zm0 5h22v2H0V5zm0 5h22v2H0v-2z"/></symbol><symbol id="minus" viewBox="0 0 14 2"><path d="M0 0h14v2H0z"/></symbol><symbol id="phone" viewBox="0 0 16 16"><path d="M15.992 12.627a.774.774 0 01-.237.678l-2.253 2.237c-.101.113-.234.21-.398.288-.163.08-.324.13-.482.153l-.102.008c-.056.006-.13.009-.22.009-.215 0-.562-.037-1.042-.11-.48-.074-1.067-.254-1.761-.543-.695-.288-1.482-.72-2.363-1.296-.881-.576-1.818-1.367-2.812-2.373-.79-.78-1.445-1.525-1.965-2.237-.52-.712-.937-1.37-1.253-1.975a10.639 10.639 0 01-.712-1.644 8.727 8.727 0 01-.321-1.271 4.2 4.2 0 01-.068-.84c.011-.203.017-.316.017-.338.022-.158.073-.32.152-.483a1.27 1.27 0 01.288-.398L2.713.237A.746.746 0 013.255 0c.147 0 .277.042.39.127.112.085.208.19.287.314l1.813 3.44c.101.181.13.379.085.594a1.057 1.057 0 01-.288.542l-.83.83a.283.283 0 00-.06.11.419.419 0 00-.025.128c.045.237.147.508.305.813.135.271.344.602.627.992.282.39.683.839 1.202 1.347.508.52.96.924 1.355 1.212.395.288.726.5.991.636.265.135.469.217.61.245l.211.043c.023 0 .06-.009.11-.026a.283.283 0 00.11-.059l.966-.983c.204-.18.44-.271.712-.271.192 0 .344.034.457.102h.017l3.269 1.932c.237.147.378.333.423.56z"/></symbol><symbol id="place" viewBox="0 0 12 16"><path d="M6 0C2.692 0 0 2.6 0 5.795 0 9.76 5.37 15.58 5.598 15.827c.215.23.59.23.804 0C6.631 15.58 12 9.76 12 5.795 12 2.599 9.308 0 6 0zm0 8.71c-1.665 0-3.019-1.308-3.019-2.915 0-1.608 1.354-2.916 3.019-2.916s3.019 1.308 3.019 2.916C9.019 7.402 7.665 8.71 6 8.71z"/></symbol><symbol id="play" viewBox="0 0 20 20"><path d="M0 20V0l20 10z"/></symbol><symbol id="plus" viewBox="0 0 14 14"><path d="M6 6V0h2v6h6v2H8v6H6V8H0V6z"/></symbol><symbol id="reset" viewBox="0 0 19 22"><path d="M10.544 21.938c4.381-.494 7.892-4.022 8.392-8.435.656-5.77-3.797-10.682-9.378-10.745V.169c0-.144-.178-.22-.299-.13L3.97 3.953a.165.165 0 000 .265l5.29 3.915c.12.09.3.009.3-.13V5.417c3.92.063 7.061 3.425 6.794 7.442-.228 3.456-3.025 6.26-6.456 6.48-3.635.234-6.727-2.381-7.28-5.842a1.32 1.32 0 00-1.303-1.11c-.798 0-1.423.715-1.298 1.51.776 4.93 5.295 8.63 10.528 8.04z"/></symbol><symbol id="search" viewBox="0 0 20 20"><path d="M19.696 18.217l-4.93-4.95a7.884 7.884 0 001.962-5.192C16.728 3.623 12.976 0 8.364 0 3.752 0 0 3.623 0 8.075c0 4.452 3.752 8.075 8.364 8.075a8.48 8.48 0 004.792-1.461l4.967 4.988c.208.208.487.323.787.323.283 0 .552-.104.756-.294.433-.403.447-1.07.03-1.49zM8.364 2.107c3.409 0 6.182 2.677 6.182 5.968s-2.773 5.968-6.182 5.968c-3.409 0-6.182-2.677-6.182-5.968s2.773-5.968 6.182-5.968z"/></symbol><symbol id="twitter" viewBox="0 0 18 15"><path d="M18 1.775a7.23 7.23 0 01-2.12.596A3.788 3.788 0 0017.503.277a7.331 7.331 0 01-2.347.92A3.64 3.64 0 0012.461 0C10.422 0 8.77 1.696 8.77 3.787c0 .297.032.586.095.863-3.068-.158-5.789-1.666-7.61-3.958-.318.559-.5 1.21-.5 1.904 0 1.315.653 2.474 1.643 3.153a3.622 3.622 0 01-1.673-.476v.048c0 1.835 1.274 3.366 2.962 3.714-.31.086-.636.133-.973.133-.238 0-.47-.024-.695-.07.47 1.505 1.833 2.6 3.448 2.63A7.29 7.29 0 010 13.297 10.247 10.247 0 005.66 15c6.793 0 10.505-5.772 10.505-10.778l-.012-.49A7.481 7.481 0 0018 1.775z"/></symbol><symbol id="video_pause" viewBox="0 0 30 30"><path d="M15 0C6.75 0 0 6.75 0 15s6.75 15 15 15 15-6.75 15-15S23.25 0 15 0zm-1.5 21h-3V9h3v12zm6 0h-3V9h3v12z"/></symbol><symbol id="video_play" viewBox="0 0 30 30"><path d="M15 0C6.729 0 0 6.729 0 15s6.729 15 15 15 15-6.729 15-15S23.271 0 15 0zm7.782 15.413l-11 7.5A.5.5 0 0111 22.5v-15a.5.5 0 01.782-.413l11 7.5a.5.5 0 010 .826z"/></symbol><symbol id="vimeo" viewBox="0 0 18 18"><path d="M0 0h18v18H0V0zm1.96 6.204l.697.888s.87-.679 1.183-.679c.195 0 .61.226.87 1.01.262.783 1.361 4.843 1.428 5.03.3.84.696 2.401 1.914 2.628 1.219.226 2.768-1.01 3.62-1.915.853-.905 4.213-4.769 4.352-7.084.128-2.14-.574-2.637-.888-2.836-.574-.366-1.532-.488-2.437-.175-.905.314-2.28 1.34-2.645 3.168 0 0 1.236-.452 1.688-.017.453.435.33 1.392-.052 2.106-.383.713-1.462 2.367-1.862 2.419-.4.052-.714-.731-.766-.94-.052-.209-.714-3.08-.957-4.751-.244-1.671-1.306-1.95-1.81-1.95-.505 0-1.375.383-4.334 3.098z"/></symbol><symbol id="youtube" viewBox="0 0 20 14"><path d="M19.15 1.35C18.608.366 18.019.185 16.82.116 15.623.034 12.611 0 10.002 0 7.39 0 4.376.034 3.18.116 1.984.186 1.394.366.846 1.349.288 2.33 0 4.021 0 6.996v.01c0 2.963.288 4.666.846 5.637.548.983 1.136 1.161 2.333 1.244 1.197.071 4.21.113 6.823.113 2.61 0 5.62-.042 6.82-.112 1.198-.083 1.787-.26 2.33-1.243.563-.972.848-2.674.848-5.637V7v-.004c0-2.976-.285-4.667-.85-5.648zM7.5 10.817V3.182L13.75 7 7.5 10.818z"/></symbol></svg>