<svg viewBox="0 0 18 16" xmlns="http://www.w3.org/2000/svg"><path d="M17.265 2.712h-2.204V.735a.733.733 0 00-.735-.732H3.673a.733.733 0 00-.734.732v1.977H.735A.733.733 0 000 3.444v7.177c0 .404.329.732.735.732h2.204v3.859c0 .244.05.426.239.599.088.08.182.132.297.164.106.03.212.028.32.028h10.41c.107 0 .213.002.32-.028a.708.708 0 00.297-.165c.189-.172.238-.355.238-.599v-3.858h2.204A.733.733 0 0018 10.62V3.444a.733.733 0 00-.735-.732zM1.837 5.293a.642.642 0 11-.002-1.283.642.642 0 01.002 1.283zm12.49 9.977H3.673V9.486h10.654v5.784zm0-12.558H3.673V1.467c0-.404.33-.732.735-.732h9.184c.406 0 .735.328.735.732v1.245z"/></svg>