<svg xmlns="http://www.w3.org/2000/svg" xmlns:xlink="http://www.w3.org/1999/xlink"><defs><path id="a" d="M0 0h25v25H0z"/><path id="a" d="M.008.006h24.717V17.36H.008z"/></defs><symbol id="angle_down" viewBox="0 0 5 4"><path d="M5 4H4V1H0V0h5v4z"/></symbol><symbol id="angle_right" viewBox="0 0 7 7"><path d="M0 7l7-2.781V2.78L0 0v1.313l3.797 1.438c.842.324 2.196.741 2.196.741v.031s-1.354.433-2.196.757L0 5.702V7z"/></symbol><symbol id="arrow_left" viewBox="0 0 22 22"><path d="M11.972 19.65l-7.278-7.277h15.931a1.375 1.375 0 000-2.75H4.694l7.278-7.277A1.374 1.374 0 1010.028.403L.402 10.027a1.384 1.384 0 00-.298 1.5 1.37 1.37 0 00.3.446l9.625 9.624a1.374 1.374 0 101.944-1.944l-.001-.003z"/></symbol><symbol id="arrow_right" viewBox="0 0 22 22"><path d="M10.028 2.348l7.278 7.278H1.375a1.375 1.375 0 000 2.75h15.931l-7.278 7.277a1.374 1.374 0 101.945 1.944l9.625-9.625a1.373 1.373 0 000-1.944L11.973.403a1.374 1.374 0 10-1.945 1.944v.001z"/></symbol><symbol id="caret_down" viewBox="0 0 8 4"><path d="M7.088 0L3.544 4 0 0z" fill-rule="evenodd"/></symbol><symbol id="caret_left" viewBox="0 0 5 8"><path d="M4.475.475l-3.95 3.5 3.95 3.5z" fill-rule="evenodd"/></symbol><symbol id="caret_right" viewBox="0 0 5 8"><path d="M.525.475l3.95 3.5-3.95 3.5z" fill-rule="evenodd"/></symbol><symbol id="caret_up" viewBox="0 0 15 12"><path d="M11.088 6L7.544 2 4 6z" fill-rule="evenodd"/></symbol><symbol id="clock" viewBox="0 0 16 16"><path d="M8 0c4.411 0 8 3.589 8 8s-3.589 8-8 8-8-3.589-8-8 3.589-8 8-8zm0 14.298A6.305 6.305 0 0014.298 8 6.305 6.305 0 008 1.702 6.305 6.305 0 001.702 8 6.305 6.305 0 008 14.298zm4.17-6.545a.659.659 0 010 1.317H7.914a.659.659 0 01-.658-.658V3.43a.659.659 0 011.317 0v4.323h3.595z"/></symbol><symbol id="close" viewBox="0 0 16 16"><path d="M15.876 2.676l-5.658 5.657 5.658 5.657-1.886 1.886-5.657-5.658-5.657 5.658L.791 13.99l5.657-5.657L.791 2.676 2.676.791l5.657 5.656L13.99.791l1.886 1.885z" fill-rule="evenodd"/></symbol><symbol id="expand" viewBox="0 0 9 18"><path d="M4.5 2.83L7.608 6 8.99 4.59 4.5 0 0 4.59 1.392 6 4.5 2.83zm0 12.34L1.392 12 .01 13.41 4.5 18 9 13.41 7.608 12 4.5 15.17z"/></symbol><symbol id="external" viewBox="0 0 18 18"><path d="M16 16H2V2h7V0H2a2 2 0 00-2 2v14a2 2 0 002 2h14c1.1 0 2-.9 2-2V9h-2v7zM11 0v2h3.59l-9.83 9.83 1.41 1.41L16 3.41V7h2V0h-7z"/></symbol><symbol id="facebook" viewBox="0 0 25 25"><g fill="none" fill-rule="evenodd"><mask id="b" fill="#fff"><use xlink:href="#a"/></mask><path d="M25 12.576C25 5.631 19.404 0 12.5 0S0 5.63 0 12.576C0 18.854 4.571 24.056 10.547 25v-8.788H7.373v-3.636h3.174v-2.77c0-3.152 1.866-4.893 4.721-4.893 1.368 0 2.798.245 2.798.245v3.095H16.49c-1.553 0-2.037.97-2.037 1.964v2.36h3.467l-.554 3.635h-2.913V25C20.43 24.057 25 18.854 25 12.576" fill="currentColor" mask="url(#b)"/></g></symbol><symbol id="fax" viewBox="0 0 18 16"><path d="M17.265 2.712h-2.204V.735a.733.733 0 00-.735-.732H3.673a.733.733 0 00-.734.732v1.977H.735A.733.733 0 000 3.444v7.177c0 .404.329.732.735.732h2.204v3.859c0 .244.05.426.239.599.088.08.182.132.297.164.106.03.212.028.32.028h10.41c.107 0 .213.002.32-.028a.708.708 0 00.297-.165c.189-.172.238-.355.238-.599v-3.858h2.204A.733.733 0 0018 10.62V3.444a.733.733 0 00-.735-.732zM1.837 5.293a.642.642 0 11-.002-1.283.642.642 0 01.002 1.283zm12.49 9.977H3.673V9.486h10.654v5.784zm0-12.558H3.673V1.467c0-.404.33-.732.735-.732h9.184c.406 0 .735.328.735.732v1.245z"/></symbol><symbol id="file" viewBox="0 0 16 20"><path d="M2 0C.9 0 .01.9.01 2L0 18c0 1.1.89 2 1.99 2H14c1.1 0 2-.9 2-2V6l-6-6H2zm7 7V1.5L14.5 7H9z"/></symbol><symbol id="flickr" viewBox="0 0 22 10"><path d="M22 5.001C22 7.761 19.793 10 17.07 10s-4.93-2.238-4.93-4.999C12.14 2.239 14.346 0 17.07 0S22 2.239 22 5.001zM4.93 0C2.207 0 0 2.239 0 5.001 0 7.761 2.207 10 4.93 10s4.93-2.238 4.93-4.999C9.86 2.239 7.653 0 4.93 0z"/></symbol><symbol id="home" viewBox="0 0 10 10"><path d="M9.99 5.087a.22.22 0 01-.2.127H8.75v4.58c0 .117-.093.21-.21.21H6.46a.208.208 0 01-.21-.21v-3.54h-2.5v3.54c0 .117-.093.21-.21.21H1.46a.208.208 0 01-.21-.21v-4.58H.21a.22.22 0 01-.2-.127.255.255 0 01.048-.235l4.79-4.79a.215.215 0 01.303 0l4.79 4.79a.255.255 0 01.049.235z"/></symbol><symbol id="instagram" viewBox="0 0 26 25"><path d="M13.837.009c2.344.003 2.817.021 3.978.074 1.33.06 2.238.272 3.033.58.822.32 1.519.748 2.213 1.442a6.126 6.126 0 011.442 2.214c.309.794.52 1.703.58 3.033.061 1.333.076 1.758.076 5.152v.32c-.001 3.102-.017 3.542-.075 4.832-.061 1.33-.272 2.238-.581 3.033a6.126 6.126 0 01-1.442 2.214 6.126 6.126 0 01-2.213 1.441c-.795.309-1.703.52-3.033.58-1.333.062-1.759.076-5.152.076h-.32c-3.102-.001-3.543-.016-4.832-.075-1.33-.06-2.239-.272-3.034-.581a6.126 6.126 0 01-2.213-1.441 6.125 6.125 0 01-1.441-2.214c-.31-.795-.52-1.703-.581-3.033-.053-1.16-.07-1.633-.075-3.978V11.33C.171 8.985.19 8.513.242 7.352c.06-1.33.272-2.239.58-3.033a6.125 6.125 0 011.442-2.214A6.125 6.125 0 014.477.664c.795-.309 1.704-.52 3.034-.58C8.67.03 9.144.011 11.489.008zm-.258 2.25h-1.833c-2.508.003-2.947.02-4.133.073-1.218.056-1.88.26-2.32.43a3.88 3.88 0 00-1.437.935 3.871 3.871 0 00-.935 1.437c-.17.44-.374 1.102-.43 2.32-.054 1.186-.07 1.625-.072 4.133v1.834c.002 2.508.018 2.947.072 4.132.056 1.219.26 1.88.43 2.32.227.584.498 1 .935 1.438.437.437.854.708 1.437.934.44.171 1.102.375 2.32.43 1.186.055 1.625.07 4.133.073h1.833c2.509-.003 2.947-.018 4.133-.072 1.219-.056 1.88-.26 2.32-.43.584-.227 1-.498 1.437-.935.438-.438.708-.854.935-1.437.171-.44.375-1.102.43-2.32.054-1.186.07-1.625.073-4.133v-1.834c-.003-2.508-.019-2.947-.073-4.133-.055-1.218-.259-1.88-.43-2.32-.227-.583-.497-1-.935-1.437a3.871 3.871 0 00-1.436-.934c-.44-.172-1.102-.375-2.32-.43-1.187-.055-1.625-.07-4.134-.073zm-.916 3.828a6.417 6.417 0 110 12.834 6.417 6.417 0 010-12.834zm0 2.252a4.165 4.165 0 100 8.33 4.165 4.165 0 000-8.33zm6.67-4.005a1.5 1.5 0 110 3 1.5 1.5 0 010-3z" fill="currentColor" fill-rule="evenodd"/></symbol><symbol id="label" viewBox="0 0 14 14"><path d="M13.658 7.439L7.051.84C6.817.607 6.503.408 6.108.245 5.714.082 5.354 0 5.028 0H1.182C.863 0 .585.117.35.351a1.137 1.137 0 00-.35.832v3.844c0 .327.082.687.245 1.081.163.395.362.706.596.934l6.607 6.616c.228.228.505.342.832.342.32 0 .6-.114.84-.342l4.538-4.546c.228-.229.342-.506.342-.832 0-.32-.114-.6-.342-.841zM3.793 3.793a1.14 1.14 0 01-.836.347 1.14 1.14 0 01-.836-.347 1.14 1.14 0 01-.347-.836c0-.326.116-.605.347-.836a1.14 1.14 0 01.836-.347c.327 0 .605.116.836.347.231.23.347.51.347.836 0 .327-.116.605-.347.836z"/></symbol><symbol id="linkedin" viewBox="0 0 26 25"><path d="M23.245 0c1.017 0 1.845.807 1.845 1.801v21.395c0 .996-.828 1.804-1.845 1.804H2.006c-1.015 0-1.84-.808-1.84-1.804V1.801C.167.807.992 0 2.007 0zM7.56 9.372H3.862v11.931h3.697V9.373zm9.411-.296c-1.798 0-3.004.989-3.498 1.927h-.05v-1.63H9.878v11.93h3.694v-5.902c0-1.556.295-3.063 2.218-3.063 1.896 0 1.921 1.78 1.921 3.163v5.802h3.695V14.76c0-3.212-.692-5.683-4.435-5.683zM5.711 3.442a2.147 2.147 0 00-2.144 2.15c0 1.186.96 2.15 2.144 2.15a2.148 2.148 0 002.142-2.15c0-1.187-.96-2.15-2.142-2.15z" fill="currentColor" fill-rule="evenodd"/></symbol><symbol id="logo" viewBox="0 0 129 85"><g fill-rule="evenodd"><path d="M17.464 10.848V85H7.448V10.848H0V0h24.912v10.848h-7.448M45.311 51.69V85h-9.786V51.69L27.136 0h9.533l4.448 35.225L45.184 0h9.533L45.31 51.69M57.386 85V0h9.88v75.173h10.138V85H57.386M80.074 85V0h20.463v10.21H89.86V36.12h7.245v10.21H89.86v28.46h10.677V85H80.074M117.138 13.656c0-2.425-.642-3.446-1.797-3.446h-2.567V38.8h2.567c1.155 0 1.797-.894 1.797-3.446V13.656zM119.834 85c-1.54 0-2.44-8.679-2.44-13.146V51.817c0-1.915-.77-3.318-2.181-3.318h-2.44V85h-10.012V0h12.965c5.006 0 11.296 2.553 11.296 13.4v21.698c0 3.956-1.925 6.509-4.62 8.806 2.695 2.17 4.877 4.722 4.877 8.806v18.123c0 5.36.642 9.7 1.284 13.784V85h-8.73z"/></g></symbol><symbol id="mail" viewBox="0 0 22 16"><path d="M20.066 0H1.934C.869 0 0 .829 0 1.846v12.308C0 15.168.865 16 1.934 16h18.132C21.13 16 22 15.174 22 14.154V1.846C22 .832 21.135 0 20.066 0zM19.8 1.23l-8.758 8.363-8.834-8.362H19.8zM1.29 13.9V2.095l6.208 5.877-6.208 5.927zm.912.87l6.212-5.93 2.176 2.06a.666.666 0 00.91-.002l2.12-2.028 6.178 5.9H2.201zm18.51-.87L14.533 8l6.178-5.899v11.798z"/></symbol><symbol id="menu" viewBox="0 0 19 16"><path d="M18.667 13.333V16H0v-2.667h18.667zm0-6.666v2.666H0V6.667h18.667zm0-6.667v2.667H0V0h18.667z" fill-rule="evenodd"/></symbol><symbol id="minus" viewBox="0 0 14 2"><path d="M0 0h14v2H0z"/></symbol><symbol id="phone" viewBox="0 0 16 16"><path d="M2.04 15.984C9.296 15.07 15.07 9.313 15.983 2.04 16 1.984 16 1.945 16 1.906a.236.236 0 00-.04-.125c-.015-.078-.093-.148-.163-.187L11.836.016a.361.361 0 00-.43.171L9.22 4.556c-.07.133-.031.28.062.39l2.125 2.125a13.44 13.44 0 01-4.336 4.36L4.945 9.28c-.11-.094-.258-.133-.39-.062L.188 11.406a.361.361 0 00-.172.43l1.578 3.96c.039.071.093.15.187.188.021.01.052.014.082.015l.043.001c.04 0 .078 0 .133-.016z" fill="currentColor"/></symbol><symbol id="place" viewBox="0 0 12 18"><path d="M6 18a.42.42 0 00.334-.185l4.895-8.877a6.085 6.085 0 00.774-2.935A6.005 6.005 0 006 0 6.005 6.005 0 00-.003 6.003c0 1.063.273 2.083.774 2.935l4.895 8.877A.384.384 0 006 18zm0-9.747a2.243 2.243 0 01-2.25-2.25A2.238 2.238 0 016 3.753c1.248 0 2.25.993 2.25 2.25A2.243 2.243 0 016 8.253z" fill="currentColor"/></symbol><symbol id="play" viewBox="0 0 20 20"><path d="M0 20V0l20 10z"/></symbol><symbol id="plus" viewBox="0 0 10 10"><path d="M5.714 0v4.285H10v1.43l-4.286-.001V10H4.286l-.001-4.286H0V4.286l4.285-.001V0h1.43z" fill-rule="evenodd"/></symbol><symbol id="reset" viewBox="0 0 19 22"><path d="M10.544 21.938c4.381-.494 7.892-4.022 8.392-8.435.656-5.77-3.797-10.682-9.378-10.745V.169c0-.144-.178-.22-.299-.13L3.97 3.953a.165.165 0 000 .265l5.29 3.915c.12.09.3.009.3-.13V5.417c3.92.063 7.061 3.425 6.794 7.442-.228 3.456-3.025 6.26-6.456 6.48-3.635.234-6.727-2.381-7.28-5.842a1.32 1.32 0 00-1.303-1.11c-.798 0-1.423.715-1.298 1.51.776 4.93 5.295 8.63 10.528 8.04z"/></symbol><symbol id="search" viewBox="0 0 20 20"><path d="M19.696 18.217l-4.93-4.95a7.884 7.884 0 001.962-5.192C16.728 3.623 12.976 0 8.364 0 3.752 0 0 3.623 0 8.075c0 4.452 3.752 8.075 8.364 8.075a8.48 8.48 0 004.792-1.461l4.967 4.988c.208.208.487.323.787.323.283 0 .552-.104.756-.294a1.03 1.03 0 00.03-1.49zM8.364 2.107c3.409 0 6.182 2.677 6.182 5.968s-2.773 5.968-6.182 5.968c-3.409 0-6.182-2.677-6.182-5.968s2.773-5.968 6.182-5.968z"/></symbol><symbol id="twitter" viewBox="0 0 25 21"><path d="M7.853 20.75c9.434 0 14.596-7.793 14.596-14.54 0-.219 0-.438-.01-.657 1-.718 1.87-1.625 2.561-2.651-.92.408-1.91.677-2.951.807a5.145 5.145 0 002.26-2.83c-.99.588-2.09 1.006-3.26 1.235A5.13 5.13 0 0017.306.5c-2.831 0-5.132 2.292-5.132 5.112 0 .399.05.788.13 1.166A14.586 14.586 0 011.73 1.437a5.119 5.119 0 001.59 6.826A5.198 5.198 0 011 7.625v.07c0 2.472 1.77 4.544 4.111 5.013a5 5 0 01-1.35.18c-.33 0-.65-.03-.96-.09a5.127 5.127 0 004.791 3.547 10.314 10.314 0 01-6.373 2.193c-.41 0-.82-.02-1.22-.07a14.633 14.633 0 007.853 2.282" fill="currentColor" fill-rule="evenodd"/></symbol><symbol id="video_pause" viewBox="0 0 24 24"><path d="M14.016 5.016H18v13.969h-3.984V5.016zM6 18.984V5.015h3.984v13.969H6z"/></symbol><symbol id="video_play" viewBox="0 0 24 24"><path d="M8.016 5.016L18.985 12 8.016 18.984V5.015z"/></symbol><symbol id="vimeo" viewBox="0 0 18 18"><path d="M0 0h18v18H0V0zm1.96 6.204l.697.888s.87-.679 1.183-.679c.195 0 .61.226.87 1.01.262.783 1.361 4.843 1.428 5.03.3.84.696 2.401 1.914 2.628 1.219.226 2.768-1.01 3.62-1.915.853-.905 4.213-4.769 4.352-7.084.128-2.14-.574-2.637-.888-2.836-.574-.366-1.532-.488-2.437-.175-.905.314-2.28 1.34-2.645 3.168 0 0 1.236-.452 1.688-.017.453.435.33 1.392-.052 2.106-.383.713-1.462 2.367-1.862 2.419-.4.052-.714-.731-.766-.94-.052-.209-.714-3.08-.957-4.751-.244-1.671-1.306-1.95-1.81-1.95-.505 0-1.375.383-4.334 3.098z"/></symbol><symbol id="youtube" viewBox="0 0 26 19"><g transform="translate(.167 .75)" fill="none" fill-rule="evenodd"><mask id="b" fill="#fff"><use xlink:href="#a"/></mask><path d="M9.834 12.344V5.016l6.462 3.664-6.462 3.664zM24.209 2.71A3.101 3.101 0 0022.023.518C20.094 0 12.363 0 12.363 0S4.63 0 2.703.518A3.101 3.101 0 00.517 2.711C0 4.645 0 8.68 0 8.68s0 4.035.517 5.97a3.102 3.102 0 002.186 2.192c1.928.518 9.66.518 9.66.518s7.731 0 9.66-.518a3.102 3.102 0 002.186-2.193c.516-1.934.516-5.969.516-5.969s0-4.035-.516-5.97z" fill="currentColor" mask="url(#b)"/></g></symbol></svg>