<svg viewBox="0 0 26 25" xmlns="http://www.w3.org/2000/svg"><path d="M23.245 0c1.017 0 1.845.807 1.845 1.801v21.395c0 .996-.828 1.804-1.845 1.804H2.006c-1.015 0-1.84-.808-1.84-1.804V1.801C.167.807.992 0 2.007 0zM7.56 9.372H3.862v11.931h3.697V9.373zm9.411-.296c-1.798 0-3.004.989-3.498 1.927h-.05v-1.63H9.878v11.93h3.694v-5.902c0-1.556.295-3.063 2.218-3.063 1.896 0 1.921 1.78 1.921 3.163v5.802h3.695V14.76c0-3.212-.692-5.683-4.435-5.683zM5.711 3.442a2.147 2.147 0 00-2.144 2.15c0 1.186.96 2.15 2.144 2.15a2.148 2.148 0 002.142-2.15c0-1.187-.96-2.15-2.142-2.15z" fill-rule="evenodd"/></svg>