<svg class="icon icon_logo" viewBox="0 0 129 85" xmlns="http://www.w3.org/2000/svg"><g fill-rule="evenodd"><path d="M17.464 10.848V85H7.448V10.848H0V0h24.912v10.848h-7.448M45.311 51.69V85h-9.786V51.69L27.136 0h9.533l4.448 35.225L45.184 0h9.533L45.31 51.69M57.386 85V0h9.88v75.173h10.138V85H57.386M80.074 85V0h20.463v10.21H89.86V36.12h7.245v10.21H89.86v28.46h10.677V85H80.074M117.138 13.656c0-2.425-.642-3.446-1.797-3.446h-2.567V38.8h2.567c1.155 0 1.797-.894 1.797-3.446V13.656zM119.834 85c-1.54 0-2.44-8.679-2.44-13.146V51.817c0-1.915-.77-3.318-2.181-3.318h-2.44V85h-10.012V0h12.965c5.006 0 11.296 2.553 11.296 13.4v21.698c0 3.956-1.925 6.509-4.62 8.806 2.695 2.17 4.877 4.722 4.877 8.806v18.123c0 5.36.642 9.7 1.284 13.784V85h-8.73z"/></g></svg>