<svg viewBox="0 0 14 14" xmlns="http://www.w3.org/2000/svg"><path d="M7 13.419a6.413 6.413 0 004.313-1.668c.014 0 .014-.02.014-.02a.262.262 0 00.082-.192c0-.082-.02-.15-.082-.198v-.014l-1.25-1.25a.285.285 0 00-.39 0A4.164 4.164 0 017 11.08 4.087 4.087 0 012.919 7 4.087 4.087 0 017 2.919c1.019 0 1.962.37 2.673 1.005L7.957 5.626c-.082.075-.096.205-.068.321a.298.298 0 00.28.178h5.537c.164 0 .294-.13.294-.294V.294a.298.298 0 00-.178-.28c-.116-.028-.246-.014-.321.068L11.327 2.27A6.367 6.367 0 007 .58C3.466.581.581 3.466.581 7S3.466 13.419 7 13.419z" fill-rule="nonzero"/></svg>