<svg viewBox="0 0 25 21" xmlns="http://www.w3.org/2000/svg"><path d="M7.853 20.75c9.434 0 14.596-7.793 14.596-14.54 0-.219 0-.438-.01-.657 1-.718 1.87-1.625 2.561-2.651-.92.408-1.91.677-2.951.807a5.145 5.145 0 002.26-2.83c-.99.588-2.09 1.006-3.26 1.235A5.13 5.13 0 0017.306.5c-2.831 0-5.132 2.292-5.132 5.112 0 .399.05.788.13 1.166A14.586 14.586 0 011.73 1.437a5.119 5.119 0 001.59 6.826A5.198 5.198 0 011 7.625v.07c0 2.472 1.77 4.544 4.111 5.013a5 5 0 01-1.35.18c-.33 0-.65-.03-.96-.09a5.127 5.127 0 004.791 3.547 10.314 10.314 0 01-6.373 2.193c-.41 0-.82-.02-1.22-.07a14.633 14.633 0 007.853 2.282" fill="currentColor" fill-rule="evenodd"/></svg>